<?xml version="1.0"?>
<svg xmlns="http://www.w3.org/2000/svg" height="512px" version="1.1" viewBox="0 -15 543.032 543" width="512px">
<g id="surface1">
<path d="M 372.304688 132.652344 L 356.042969 132.652344 C 354.542969 127.933594 352.652344 123.34375 350.390625 118.925781 L 361.921875 107.390625 C 366.398438 102.894531 366.398438 95.628906 361.921875 91.128906 L 337.472656 66.796875 C 332.972656 62.320312 325.707031 62.320312 321.210938 66.796875 L 309.675781 78.328125 C 305.28125 75.835938 300.691406 73.714844 295.949219 71.984375 L 295.949219 56.183594 C 295.949219 49.816406 290.785156 44.648438 284.417969 44.648438 L 249.816406 44.648438 C 243.449219 44.648438 238.285156 49.816406 238.285156 56.183594 L 238.285156 71.984375 C 233.554688 73.53125 228.964844 75.457031 224.558594 77.75 L 213.023438 66.21875 C 208.527344 61.742188 201.261719 61.742188 196.761719 66.21875 L 172.3125 90.550781 C 167.835938 95.050781 167.835938 102.316406 172.3125 106.816406 L 183.84375 118.347656 C 181.605469 122.765625 179.714844 127.355469 178.191406 132.074219 L 162.046875 132.074219 C 155.679688 132.074219 150.511719 137.238281 150.511719 143.605469 L 150.511719 178.207031 C 150.511719 184.574219 155.679688 189.742188 162.046875 189.742188 L 178.308594 189.742188 C 179.855469 194.457031 181.789062 199.046875 184.074219 203.464844 L 172.542969 215 C 168.066406 219.496094 168.066406 226.761719 172.542969 231.261719 L 196.878906 256.519531 C 201.375 260.996094 208.640625 260.996094 213.140625 256.519531 L 224.671875 244.984375 C 229.089844 247.234375 233.679688 249.125 238.398438 250.636719 L 238.398438 266.898438 C 238.398438 273.265625 243.5625 278.433594 249.929688 278.433594 L 284.53125 278.433594 C 290.898438 278.433594 296.066406 273.265625 296.066406 266.898438 L 296.066406 250.292969 C 300.734375 248.886719 305.28125 247.109375 309.675781 244.984375 L 321.207031 256.519531 C 325.707031 260.996094 332.972656 260.996094 337.46875 256.519531 L 361.921875 232.183594 C 366.394531 227.6875 366.394531 220.417969 361.921875 215.921875 L 350.386719 204.386719 C 352.648438 199.972656 354.539062 195.382812 356.039062 190.664062 L 372.300781 190.664062 C 378.667969 190.664062 383.835938 185.496094 383.835938 179.128906 L 383.835938 144.53125 C 384.03125 138.164062 379.015625 132.847656 372.648438 132.648438 C 372.535156 132.652344 372.417969 132.652344 372.304688 132.652344 Z M 360.769531 167.25 L 347.277344 167.25 C 341.738281 167.125 336.90625 170.953125 335.742188 176.363281 C 333.921875 184.574219 330.644531 192.382812 326.054688 199.429688 C 323.089844 203.984375 323.722656 209.996094 327.554688 213.847656 L 337.125 223.417969 L 329.050781 231.492188 L 319.710938 221.921875 C 315.859375 218.09375 309.847656 217.457031 305.292969 220.421875 C 298.257812 225.023438 290.4375 228.308594 282.226562 230.109375 C 276.816406 231.273438 272.988281 236.109375 273.113281 241.644531 L 273.113281 255.253906 L 261.582031 255.253906 L 261.582031 241.414062 C 261.707031 235.875 257.878906 231.042969 252.46875 229.878906 C 244.257812 228.082031 236.4375 224.792969 229.402344 220.191406 C 224.84375 217.226562 218.835938 217.859375 214.984375 221.691406 L 205.410156 231.261719 L 197.339844 223.1875 L 206.910156 213.617188 C 210.738281 209.765625 211.375 203.753906 208.410156 199.199219 C 203.820312 192.152344 200.542969 184.34375 198.722656 176.132812 C 197.554688 170.722656 192.722656 166.894531 187.1875 167.019531 L 173.578125 167.019531 L 173.578125 155.488281 L 187.1875 155.488281 C 192.722656 155.613281 197.554688 151.785156 198.722656 146.375 C 200.519531 138.164062 203.808594 130.34375 208.410156 123.308594 C 211.375 118.75 210.738281 112.742188 206.910156 108.890625 L 197.339844 99.316406 L 205.410156 91.246094 L 214.984375 100.816406 C 218.835938 104.644531 224.84375 105.28125 229.402344 102.316406 C 236.4375 97.714844 244.257812 94.425781 252.46875 92.628906 C 257.878906 91.460938 261.707031 86.628906 261.582031 81.09375 L 261.582031 67.714844 L 273.113281 67.714844 L 273.113281 81.324219 C 272.988281 86.859375 276.816406 91.691406 282.226562 92.859375 C 290.4375 94.65625 298.257812 97.945312 305.292969 102.546875 C 309.847656 105.507812 315.855469 104.875 319.710938 101.046875 L 329.28125 91.472656 L 337.355469 99.546875 L 327.78125 109.121094 C 323.953125 112.972656 323.320312 118.980469 326.285156 123.539062 C 330.863281 130.585938 334.148438 138.394531 335.972656 146.605469 C 337.136719 152.015625 341.96875 155.84375 347.507812 155.714844 L 361.113281 155.714844 Z M 360.769531 167.25 " style=" fill-rule:nonzero;fill-opacity:1;" stroke="#fc654c" fill="#fc654c"/>
<path d="M 267.234375 108.199219 C 237.867188 108.199219 214.0625 132.003906 214.0625 161.371094 C 214.0625 190.734375 237.867188 214.539062 267.234375 214.539062 C 296.597656 214.539062 320.402344 190.734375 320.402344 161.371094 C 320.402344 132.003906 296.597656 108.199219 267.234375 108.199219 Z M 267.234375 191.355469 C 250.613281 191.355469 237.128906 177.875 237.128906 161.253906 C 237.128906 144.636719 250.613281 131.152344 267.234375 131.152344 C 283.851562 131.152344 297.335938 144.636719 297.335938 161.253906 C 297.402344 177.875 283.96875 191.402344 267.347656 191.472656 C 267.3125 191.472656 267.265625 191.472656 267.234375 191.472656 Z M 267.234375 191.355469 " style=" fill-rule:nonzero;fill-opacity:1;" stroke="#fc654c" fill="#fc654c"/>
<path d="M 470.914062 0.015625 L 72.085938 0.015625 C 38.867188 0.015625 0 18.929688 0 72.101562 L 0 334.257812 C 0 387.425781 38.867188 406.34375 72.085938 406.34375 L 223.289062 406.34375 C 222.136719 428.488281 215.214844 477.503906 178.308594 490.652344 C 172.324219 492.820312 169.230469 499.441406 171.398438 505.425781 C 173.039062 509.945312 177.304688 512.96875 182.113281 513.027344 L 360.882812 513.027344 C 367.25 513.015625 372.40625 507.847656 372.40625 501.480469 C 372.40625 496.636719 369.363281 492.3125 364.804688 490.652344 C 327.898438 477.503906 320.976562 428.484375 319.824219 406.339844 L 470.914062 406.339844 C 524.085938 406.339844 543 367.472656 543 334.257812 L 543 71.984375 C 543 38.769531 524.085938 0.015625 470.914062 0.015625 Z M 324.554688 489.960938 L 218.445312 489.960938 C 240.820312 464.125 245.550781 425.71875 246.355469 406.457031 L 296.527344 406.457031 C 297.449219 425.71875 302.179688 464.125 324.554688 489.960938 Z M 519.933594 334.257812 C 522.332031 358.984375 504.246094 380.980469 479.519531 383.378906 C 476.65625 383.65625 473.773438 383.65625 470.914062 383.390625 L 72.085938 383.390625 C 47.355469 385.730469 25.410156 367.578125 23.066406 342.847656 C 22.800781 340.035156 22.800781 337.199219 23.066406 334.371094 L 23.066406 314.1875 L 519.933594 314.1875 Z M 519.933594 290.660156 L 23.066406 290.660156 L 23.066406 71.984375 C 20.726562 47.257812 38.878906 25.308594 63.609375 22.964844 C 66.421875 22.699219 69.261719 22.699219 72.085938 22.964844 L 470.917969 22.964844 C 495.644531 20.625 517.59375 38.777344 519.933594 63.507812 C 520.199219 66.320312 520.199219 69.15625 519.933594 71.984375 Z M 519.933594 290.660156 " style=" fill-rule:nonzero;fill-opacity:1;" stroke="#fc654c" fill="#fc654c"/>
<path d="M 289.839844 346.945312 C 289.839844 357.070312 281.628906 365.28125 271.5 365.28125 C 261.371094 365.28125 253.164062 357.070312 253.164062 346.945312 C 253.164062 336.816406 261.371094 328.605469 271.5 328.605469 C 281.628906 328.605469 289.839844 336.816406 289.839844 346.945312 Z M 289.839844 346.945312 " style=" fill-rule:nonzero;fill-opacity:1;" stroke="#fc654c" fill="#fc654c"/>
</g>
</svg>
