<?xml version="1.0"?>
<svg xmlns="http://www.w3.org/2000/svg" height="512px" version="1.1" viewBox="-91 0 599 599.54984" width="512px">
<g id="surface1">
<path d="M 208.808594 0 C 93.554688 0.128906 0.21875 93.671875 0.34375 208.925781 C 0.183594 272.308594 29.109375 332.265625 78.835938 371.566406 L 78.835938 474.644531 C 78.835938 537.554688 122.121094 560.410156 159.636719 561.101562 C 165.824219 588.066406 192.707031 604.90625 219.671875 598.722656 C 238.382812 594.425781 252.996094 579.8125 257.289062 561.101562 C 295.152344 560.410156 338.089844 538.015625 338.089844 474.644531 L 338.089844 371.566406 C 387.851562 332.242188 416.792969 272.242188 416.582031 208.8125 C 416.652344 93.867188 323.753906 0.507812 208.808594 0 Z M 208.808594 577.148438 C 198.269531 577.113281 188.691406 570.996094 184.222656 561.449219 L 233.511719 561.449219 C 229.023438 571.039062 219.394531 577.160156 208.808594 577.148438 Z M 315.699219 474.992188 C 315.699219 532.707031 273.796875 538.363281 255.789062 538.363281 L 161.714844 538.363281 C 138.46875 539.863281 116.730469 526.738281 107.230469 505.464844 L 191.957031 505.464844 C 198.328125 505.464844 203.5 500.292969 203.5 493.921875 C 203.5 487.550781 198.328125 482.378906 191.957031 482.378906 L 102.269531 482.378906 C 102.269531 479.957031 102.269531 477.53125 102.269531 474.992188 L 102.269531 435.054688 L 315.695312 435.054688 L 315.695312 474.992188 Z M 320.316406 357.136719 C 317.40625 359.320312 315.699219 362.738281 315.699219 366.371094 L 315.699219 412.542969 L 101.921875 412.542969 L 101.921875 366.371094 C 101.921875 362.738281 100.214844 359.320312 97.304688 357.136719 C 15.511719 295.558594 -0.867188 179.332031 60.714844 97.539062 C 122.292969 15.742188 238.523438 -0.632812 320.316406 60.945312 C 402.109375 122.527344 418.488281 238.753906 356.90625 320.546875 C 346.484375 334.398438 334.167969 346.714844 320.316406 357.136719 Z M 320.316406 357.136719 " style=" fill-rule:nonzero;fill-opacity:1;" stroke="#ddb12a" fill="#ddb12a"/>
<path d="M 259.597656 206.503906 L 158.019531 206.503906 C 151.648438 206.527344 146.5 211.71875 146.523438 218.09375 C 146.535156 221.207031 147.804688 224.199219 150.054688 226.355469 L 197.265625 271.605469 L 197.265625 343.515625 C 197.265625 349.890625 202.4375 355.058594 208.808594 355.058594 C 215.179688 355.058594 220.351562 349.890625 220.351562 343.515625 L 220.351562 271.605469 L 267.5625 226.355469 C 272.15625 221.9375 272.28125 214.628906 267.863281 210.035156 C 265.707031 207.785156 262.714844 206.515625 259.597656 206.503906 Z M 208.808594 250.710938 L 186.765625 229.589844 L 230.859375 229.589844 Z M 208.808594 250.710938 " style=" fill-rule:nonzero;fill-opacity:1;" stroke="#ddb12a" fill="#ddb12a"/>
</g>
</svg>
