<?xml version="1.0"?>
<svg xmlns="http://www.w3.org/2000/svg" height="512px" version="1.1" viewBox="-26 0 582 582.66688" width="512px">
<g id="surface1">
<path d="M 32.898438 86.648438 L 32.898438 163.742188 C 32.910156 166.882812 34.203125 169.882812 36.476562 172.050781 L 78.140625 212.101562 C 75.347656 217.9375 73.894531 224.320312 73.871094 230.796875 C 73.789062 255.207031 93.511719 275.066406 117.921875 275.148438 C 142.332031 275.230469 162.191406 255.503906 162.273438 231.097656 C 162.355469 206.6875 142.628906 186.824219 118.222656 186.746094 C 109.277344 186.710938 100.53125 189.398438 93.144531 194.441406 L 55.980469 158.78125 L 55.980469 86.648438 C 79.480469 80.277344 93.363281 56.054688 86.992188 32.558594 C 80.621094 9.058594 56.410156 -4.824219 32.898438 1.546875 C 9.390625 7.917969 -4.480469 32.140625 1.902344 55.640625 C 6 70.746094 17.792969 82.550781 32.898438 86.648438 Z M 117.957031 209.789062 C 129.554688 209.789062 138.960938 219.195312 138.960938 230.792969 C 138.960938 242.394531 129.554688 251.796875 117.957031 251.796875 C 106.359375 251.796875 96.953125 242.394531 96.953125 230.792969 C 96.882812 219.195312 106.242188 209.746094 117.839844 209.675781 C 117.921875 209.675781 117.992188 209.675781 118.074219 209.675781 Z M 44.441406 23.175781 C 56.039062 23.175781 65.445312 32.578125 65.445312 44.179688 C 65.445312 55.777344 56.039062 65.183594 44.441406 65.183594 C 32.84375 65.183594 23.4375 55.777344 23.4375 44.179688 C 23.4375 32.582031 32.84375 23.175781 44.441406 23.175781 Z M 44.441406 23.175781 " style=" fill-rule:nonzero;fill-opacity:1;" stroke="#4abea3" fill="#4abea3"/>
<path d="M 245.484375 44.292969 C 245.585938 19.945312 225.945312 0.128906 201.59375 0.0117188 C 177.242188 -0.09375 157.425781 19.550781 157.308594 43.902344 C 157.21875 63.878906 170.570312 81.410156 189.855469 86.648438 L 189.855469 496.351562 C 166.359375 502.722656 152.476562 526.945312 158.84375 550.441406 C 165.214844 573.941406 189.441406 587.824219 212.9375 581.453125 C 236.433594 575.082031 250.316406 550.859375 243.949219 527.359375 C 239.851562 512.253906 228.042969 500.449219 212.9375 496.351562 L 212.9375 86.648438 C 232.085938 81.457031 245.402344 64.121094 245.484375 44.292969 Z M 222.402344 538.820312 C 222.332031 550.417969 212.878906 559.769531 201.28125 559.710938 C 189.683594 559.640625 180.335938 550.1875 180.390625 538.589844 C 180.460938 527.035156 189.84375 517.699219 201.398438 517.699219 C 212.972656 517.757812 222.34375 527.128906 222.402344 538.703125 Z M 201.398438 65.644531 C 189.800781 65.644531 180.394531 56.238281 180.394531 44.640625 C 180.394531 33.042969 189.800781 23.636719 201.398438 23.636719 C 212.996094 23.636719 222.402344 33.042969 222.402344 44.640625 C 222.148438 56.078125 212.835938 65.242188 201.398438 65.296875 Z M 201.398438 65.644531 " style=" fill-rule:nonzero;fill-opacity:1;" stroke="#4abea3" fill="#4abea3"/>
<path d="M 118.070312 308.117188 C 93.753906 308.175781 74.042969 327.886719 73.984375 352.203125 C 74.007812 358.679688 75.460938 365.0625 78.257812 370.902344 L 36.59375 410.949219 C 34.320312 413.117188 33.027344 416.117188 33.015625 419.257812 L 33.015625 496.351562 C 9.519531 502.722656 -4.367188 526.933594 2.015625 550.445312 C 8.386719 573.941406 32.609375 587.824219 56.109375 581.453125 C 79.605469 575.085938 93.488281 550.859375 87.117188 527.363281 C 83.023438 512.253906 71.214844 500.449219 56.109375 496.351562 L 56.109375 424.222656 L 93.15625 388.558594 C 113.421875 402.050781 140.792969 396.546875 154.273438 376.28125 C 167.765625 356.015625 162.261719 328.640625 141.996094 315.160156 C 134.898438 310.441406 126.601562 307.878906 118.082031 307.785156 L 118.082031 308.121094 L 118.070312 308.121094 Z M 65.5625 538.9375 C 65.433594 550.535156 55.925781 559.835938 44.324219 559.710938 C 32.726562 559.582031 23.425781 550.074219 23.550781 538.472656 C 23.679688 527.015625 32.96875 517.769531 44.441406 517.699219 C 56.0625 517.699219 65.492188 527.082031 65.5625 538.703125 Z M 118.070312 373.441406 C 106.472656 373.441406 97.066406 364.035156 97.066406 352.4375 C 97.066406 340.835938 106.472656 331.433594 118.070312 331.433594 C 129.671875 331.433594 139.074219 340.835938 139.074219 352.4375 C 139.007812 363.988281 129.625 373.324219 118.070312 373.324219 Z M 118.070312 373.441406 " style=" fill-rule:nonzero;fill-opacity:1;" stroke="#4abea3" fill="#4abea3"/>
<path d="M 485.300781 0.09375 C 461.019531 -0.242188 441.066406 19.171875 440.730469 43.453125 C 440.453125 63.753906 454.105469 81.605469 473.761719 86.648438 L 473.761719 158.78125 L 436.714844 194.441406 C 416.359375 180.1875 388.289062 185.140625 374.027344 205.496094 C 359.773438 225.855469 364.722656 253.921875 385.082031 268.1875 C 405.441406 282.453125 433.507812 277.488281 447.773438 257.132812 C 457.039062 243.894531 458.503906 226.710938 451.601562 212.097656 L 493.265625 172.050781 C 495.539062 169.882812 496.832031 166.882812 496.84375 163.742188 L 496.84375 86.648438 C 520.363281 80.613281 534.535156 56.65625 528.5 33.125 C 523.457031 13.457031 505.601562 -0.195312 485.300781 0.09375 Z M 411.671875 251.800781 C 400.074219 251.800781 390.667969 242.394531 390.667969 230.796875 C 390.667969 219.195312 400.074219 209.792969 411.671875 209.792969 C 423.269531 209.792969 432.675781 219.195312 432.675781 230.796875 C 432.617188 242.371094 423.246094 251.730469 411.671875 251.800781 Z M 485.300781 65.296875 C 473.703125 65.296875 464.296875 55.894531 464.296875 44.292969 C 464.296875 32.695312 473.703125 23.289062 485.300781 23.289062 C 496.902344 23.289062 506.304688 32.695312 506.304688 44.292969 C 506.25 55.871094 496.878906 65.230469 485.300781 65.296875 Z M 485.300781 65.296875 " style=" fill-rule:nonzero;fill-opacity:1;" stroke="#4abea3" fill="#4abea3"/>
<path d="M 341.964844 230.796875 C 341.941406 224.320312 340.488281 217.9375 337.695312 212.097656 L 379.359375 172.050781 C 381.628906 169.882812 382.921875 166.882812 382.933594 163.742188 L 382.933594 86.648438 C 406.433594 80.277344 420.316406 56.054688 413.945312 32.558594 C 407.574219 9.058594 383.351562 -4.824219 359.855469 1.546875 C 336.355469 7.917969 322.472656 32.140625 328.84375 55.640625 C 332.941406 70.746094 344.746094 82.550781 359.855469 86.648438 L 359.855469 158.78125 L 322.578125 194.441406 C 302.519531 180.753906 275.15625 185.914062 261.46875 205.972656 C 247.78125 226.03125 252.9375 253.390625 272.996094 267.082031 C 277 269.816406 281.433594 271.871094 286.109375 273.152344 L 286.109375 496.351562 C 262.609375 502.722656 248.726562 526.945312 255.097656 550.445312 C 261.46875 573.941406 285.691406 587.824219 309.1875 581.453125 C 332.6875 575.082031 346.570312 550.859375 340.199219 527.363281 C 336.101562 512.253906 324.296875 500.449219 309.1875 496.351562 L 309.1875 273.148438 C 328.425781 268.039062 341.851562 250.691406 341.964844 230.796875 Z M 350.390625 44.292969 C 350.390625 32.695312 359.796875 23.289062 371.394531 23.289062 C 382.992188 23.289062 392.398438 32.695312 392.398438 44.292969 C 392.398438 55.894531 382.992188 65.296875 371.394531 65.296875 C 359.796875 65.296875 350.390625 55.894531 350.390625 44.292969 Z M 318.882812 538.707031 C 318.882812 550.304688 309.476562 559.710938 297.878906 559.710938 C 286.28125 559.710938 276.875 550.304688 276.875 538.707031 C 276.875 527.105469 286.28125 517.703125 297.878906 517.703125 C 309.453125 517.757812 318.824219 527.128906 318.882812 538.707031 Z M 297.878906 251.800781 C 286.28125 251.800781 276.875 242.394531 276.875 230.796875 C 276.875 219.195312 286.28125 209.792969 297.878906 209.792969 C 309.476562 209.792969 318.882812 219.195312 318.882812 230.796875 C 318.824219 242.371094 309.453125 251.730469 297.878906 251.800781 Z M 297.878906 251.800781 " style=" fill-rule:nonzero;fill-opacity:1;" stroke="#4abea3" fill="#4abea3"/>
<path d="M 496.84375 496.351562 L 496.84375 419.257812 C 496.832031 416.117188 495.539062 413.117188 493.265625 410.949219 L 451.601562 370.902344 C 454.394531 365.0625 455.851562 358.679688 455.875 352.203125 C 455.953125 327.792969 436.230469 307.933594 411.820312 307.851562 C 387.414062 307.769531 367.550781 327.496094 367.46875 351.902344 C 367.390625 376.3125 387.113281 396.175781 411.523438 396.253906 C 420.464844 396.289062 429.214844 393.601562 436.601562 388.558594 L 473.761719 424.21875 L 473.761719 496.347656 C 450.265625 502.71875 436.382812 526.945312 442.75 550.441406 C 449.121094 573.9375 473.34375 587.820312 496.84375 581.453125 C 520.339844 575.082031 534.222656 550.859375 527.855469 527.359375 C 523.757812 512.242188 511.949219 500.449219 496.84375 496.351562 Z M 411.671875 373.324219 C 400.074219 373.324219 390.667969 363.917969 390.667969 352.320312 C 390.667969 340.722656 400.074219 331.316406 411.671875 331.316406 C 423.269531 331.316406 432.675781 340.722656 432.675781 352.320312 C 432.675781 363.917969 423.28125 373.324219 411.671875 373.324219 Z M 485.300781 559.824219 C 473.703125 559.824219 464.296875 550.417969 464.296875 538.820312 C 464.296875 527.222656 473.703125 517.816406 485.300781 517.816406 C 496.902344 517.816406 506.304688 527.222656 506.304688 538.820312 C 506.25 550.394531 496.878906 559.753906 485.300781 559.824219 Z M 485.300781 559.824219 " style=" fill-rule:nonzero;fill-opacity:1;" stroke="#4abea3" fill="#4abea3"/>
</g>
</svg>
