<?xml version="1.0"?>
<svg xmlns="http://www.w3.org/2000/svg" height="512px" version="1.1" viewBox="0 0 577 577.72194" width="512px">
<g id="surface1">
<path d="M 204.066406 339.988281 C 200.996094 339.964844 198.054688 341.175781 195.875 343.335938 L 185.027344 354.183594 C 180.847656 351.875 176.488281 349.914062 171.984375 348.296875 L 171.984375 333.640625 C 171.984375 327.273438 166.816406 322.101562 160.445312 322.101562 L 127.789062 322.101562 C 121.417969 322.101562 116.25 327.273438 116.25 333.640625 L 116.25 348.296875 C 111.886719 349.742188 107.640625 351.519531 103.554688 353.605469 L 92.707031 342.757812 C 88.207031 338.28125 80.9375 338.28125 76.4375 342.757812 L 53.355469 365.839844 C 48.878906 370.339844 48.878906 377.609375 53.355469 382.109375 L 64.203125 392.957031 C 62.011719 397.148438 60.164062 401.507812 58.664062 405.996094 L 43.316406 405.996094 C 36.945312 405.996094 31.777344 411.167969 31.777344 417.539062 L 31.777344 450.65625 C 31.777344 457.027344 36.945312 462.195312 43.316406 462.195312 L 58.664062 462.195312 C 60.050781 466.671875 61.792969 471.035156 63.855469 475.234375 L 53.007812 486.082031 C 48.53125 490.582031 48.53125 497.855469 53.007812 502.355469 L 76.089844 525.433594 C 80.589844 529.910156 87.859375 529.910156 92.359375 525.433594 L 103.207031 514.585938 C 107.292969 516.675781 111.539062 518.453125 115.902344 519.894531 L 115.902344 535.128906 C 115.902344 541.5 121.070312 546.667969 127.441406 546.667969 L 160.445312 546.667969 C 166.816406 546.667969 171.984375 541.5 171.984375 535.128906 L 171.984375 520.355469 C 176.300781 518.902344 180.511719 517.136719 184.5625 515.046875 L 195.410156 525.894531 C 199.910156 530.371094 207.179688 530.371094 211.679688 525.894531 L 234.761719 502.816406 C 239.238281 498.316406 239.238281 491.046875 234.761719 486.546875 L 224.722656 475.007812 C 226.683594 470.980469 228.34375 466.8125 229.683594 462.542969 L 245.03125 462.542969 C 251.402344 462.542969 256.570312 457.375 256.570312 451.003906 L 256.570312 417.539062 C 256.570312 411.167969 251.402344 406 245.03125 406 L 229.683594 406 C 228.242188 401.636719 226.464844 397.390625 224.375 393.304688 L 235.222656 382.457031 C 239.699219 377.957031 239.699219 370.6875 235.222656 366.1875 L 212.140625 343.105469 C 209.964844 341.0625 207.066406 339.941406 204.066406 339.988281 Z M 221.261719 429.074219 L 233.839844 429.074219 L 233.839844 439.117188 L 221.261719 439.117188 C 215.722656 438.988281 210.886719 442.820312 209.722656 448.230469 C 208.023438 456.160156 204.898438 463.707031 200.488281 470.503906 C 197.523438 475.0625 198.160156 481.074219 201.988281 484.929688 L 210.875 493.8125 L 203.71875 500.96875 L 195.066406 492.542969 C 191.210938 488.714844 185.199219 488.078125 180.640625 491.042969 C 173.84375 495.453125 166.296875 498.582031 158.367188 500.277344 C 152.957031 501.441406 149.125 506.277344 149.25 511.816406 L 149.25 524.394531 L 139.210938 524.394531 L 139.210938 511.585938 C 139.339844 506.046875 135.507812 501.210938 130.09375 500.046875 C 122.167969 498.347656 114.621094 495.222656 107.824219 490.816406 C 103.265625 487.847656 97.253906 488.484375 93.398438 492.3125 L 84.511719 501.199219 L 77.359375 494.046875 L 86.246094 485.160156 C 90.074219 481.304688 90.710938 475.292969 87.746094 470.734375 C 83.347656 463.925781 80.207031 456.390625 78.511719 448.464844 C 77.347656 443.050781 72.511719 439.21875 66.972656 439.347656 L 55.433594 439.347656 L 55.433594 429.074219 L 68.011719 429.074219 C 73.550781 429.203125 78.382812 425.371094 79.550781 419.960938 C 81.246094 412.03125 84.375 404.484375 88.78125 397.6875 C 91.792969 392.921875 90.917969 386.667969 86.703125 382.917969 L 77.820312 374.03125 L 84.972656 366.878906 L 93.859375 375.761719 C 97.714844 379.59375 103.726562 380.226562 108.285156 377.261719 C 115.082031 372.84375 122.628906 369.714844 130.554688 368.03125 C 135.96875 366.863281 139.800781 362.03125 139.671875 356.492188 L 139.671875 344.953125 L 148.902344 344.953125 L 148.902344 357.53125 C 148.777344 363.066406 152.605469 367.902344 158.019531 369.070312 C 165.949219 370.765625 173.496094 373.890625 180.292969 378.300781 C 184.953125 381.429688 191.183594 380.746094 195.0625 376.683594 L 203.949219 367.800781 L 211.101562 374.953125 L 202.21875 383.839844 C 198.386719 387.691406 197.75 393.707031 200.71875 398.265625 C 205.125 405.0625 208.253906 412.609375 209.949219 420.535156 C 211.324219 425.636719 215.984375 429.15625 221.261719 429.074219 Z M 221.261719 429.074219 " style=" fill-rule:nonzero;fill-opacity:1;" stroke="#00bfe7" fill="#00bfe7"/>
<path d="M 144.40625 382.917969 C 115.980469 382.917969 92.9375 405.960938 92.9375 434.382812 C 92.9375 462.808594 115.980469 485.851562 144.40625 485.851562 C 172.828125 485.851562 195.871094 462.808594 195.871094 434.382812 C 195.816406 405.984375 172.804688 382.988281 144.40625 382.917969 Z M 144.40625 462.773438 C 128.722656 462.773438 116.015625 450.066406 116.015625 434.386719 C 116.015625 418.703125 128.722656 405.996094 144.40625 405.996094 C 160.085938 405.996094 172.792969 418.703125 172.792969 434.386719 C 172.917969 450.066406 160.316406 462.878906 144.632812 463.003906 Z M 144.40625 462.773438 " style=" fill-rule:nonzero;fill-opacity:1;" stroke="#00bfe7" fill="#00bfe7"/>
<path d="M 509.179688 123.386719 L 507.445312 122.234375 L 214.683594 4.410156 C 187.644531 -6.804688 156.488281 4.007812 142.210938 29.570312 C 141.613281 30.308594 141.105469 31.125 140.710938 31.992188 L 140.710938 33.261719 C 139.304688 36.191406 138.152344 39.25 137.25 42.378906 L 10.429688 378.300781 C -18.988281 453.644531 18.25 538.554688 93.59375 567.96875 C 151.90625 590.726562 218.238281 573.914062 258.648438 526.125 L 542.183594 282.636719 C 544.03125 281.25 545.644531 279.75 547.375 278.25 L 548.644531 277.214844 C 584.9375 242.683594 586.378906 185.277344 551.851562 148.980469 C 540.21875 136.75 525.390625 128.003906 509.0625 123.734375 Z M 157.5625 51.492188 L 161.136719 41.914062 C 170.152344 25.851562 190.484375 20.140625 206.546875 29.152344 C 222.609375 38.164062 228.324219 58.5 219.308594 74.5625 C 210.296875 90.625 189.964844 96.335938 173.902344 87.324219 C 161.242188 80.214844 154.628906 65.722656 157.5625 51.492188 Z M 241.222656 509.855469 C 241.222656 509.855469 228.070312 523.933594 222.992188 528.320312 C 217.914062 532.703125 203.257812 542.511719 203.257812 542.511719 C 143.273438 575.875 67.59375 554.28125 34.234375 494.300781 C 0.875 434.316406 22.464844 358.636719 82.460938 325.277344 C 142.445312 291.914062 218.121094 313.503906 251.484375 373.488281 C 275.625 416.914062 271.585938 470.539062 241.222656 509.855469 Z M 285.191406 472.121094 C 305.867188 394.0625 259.351562 314.023438 181.296875 293.34375 C 138.242188 281.941406 92.324219 290.78125 56.585938 317.371094 L 142.789062 89.921875 C 160.007812 117.257812 196.136719 125.464844 223.476562 108.246094 C 240.507812 97.511719 250.835938 78.785156 250.800781 58.648438 C 250.71875 53.328125 249.902344 48.042969 248.378906 42.953125 L 454.480469 125.925781 C 407.304688 142.96875 382.886719 195.035156 399.929688 242.199219 C 412.707031 277.570312 445.964844 301.398438 483.5625 302.136719 Z M 533.179688 259.902344 L 527.410156 264.863281 C 497.71875 287.621094 455.195312 282.011719 432.4375 252.320312 C 409.683594 222.628906 415.289062 180.105469 444.984375 157.347656 C 474.675781 134.589844 517.1875 140.199219 539.957031 169.890625 C 560.933594 197.253906 558.015625 235.992188 533.179688 259.902344 Z M 533.179688 259.902344 " style=" fill-rule:nonzero;fill-opacity:1;" stroke="#00bfe7" fill="#00bfe7"/>
<path d="M 485.984375 165.507812 C 460.492188 165.507812 439.824219 186.175781 439.824219 211.667969 C 439.824219 237.15625 460.492188 257.824219 485.984375 257.824219 C 511.476562 257.824219 532.144531 237.15625 532.144531 211.667969 C 532.144531 186.175781 511.476562 165.507812 485.984375 165.507812 Z M 485.984375 233.824219 C 473.234375 233.824219 462.902344 223.496094 462.902344 210.742188 C 462.902344 197.992188 473.230469 187.664062 485.984375 187.664062 C 498.734375 187.664062 509.0625 197.992188 509.0625 210.742188 C 509.0625 223.496094 498.734375 233.824219 485.984375 233.824219 Z M 485.984375 233.824219 " style=" fill-rule:nonzero;fill-opacity:1;" stroke="#00bfe7" fill="#00bfe7"/>
</g>
</svg>
